<svg width="33" height="32" viewBox="0 0 33 32" fill="none" xmlns="http://www.w3.org/2000/svg">
<g clip-path="url(#clip0_2717_3)">
<path d="M0.0761719 0.000183105H32.0762V17.2747L30.4923 19.7496L32.0762 21.9522V32.0002H0.0761719V15.7156L1.06612 14.5771L0.0761719 13.4882V0.000183105Z" fill="#016FD0"/>
<path d="M6.28763 22.2984V17.2745H11.6071L12.1778 18.0185L12.7674 17.2745H32.0757V21.952C32.0757 21.952 31.5708 22.2934 30.9868 22.2984H20.2954L19.6519 21.5065V22.2984H17.5433V20.9466C17.5433 20.9466 17.2553 21.1353 16.6326 21.1353H15.9149V22.2984H12.7223L12.1524 21.5385L11.5737 22.2984H6.28763Z" fill="white"/>
<path d="M0.0761719 13.488L1.27573 10.6914H3.35024L4.031 12.2579V10.6914H6.60981L7.01507 11.8237L7.40796 10.6914H18.9841V11.2606C18.9841 11.2606 19.5927 10.6914 20.5928 10.6914L24.3488 10.7045L25.0179 12.2506V10.6914H27.1759L27.7699 11.5795V10.6914H29.9478V15.7154H27.7699L27.2007 14.8244V15.7154H24.03L23.7111 14.9234H22.8587L22.5451 15.7154H20.3948C19.5342 15.7154 18.9841 15.1578 18.9841 15.1578V15.7154H15.7421L15.0986 14.9234V15.7154H3.04292L2.72428 14.9234H1.8746L1.55822 15.7154H0.0761719V13.488Z" fill="white"/>
<path d="M1.70077 11.3107L0.0828247 15.0725H1.13619L1.43472 14.3192H3.17022L3.4672 15.0725H4.54377L2.92737 11.3107H1.70077ZM2.29937 12.1862L2.82838 13.5025H1.76883L2.29937 12.1862Z" fill="#016FD0"/>
<path d="M4.65483 15.0718V11.31L6.15171 11.3156L7.02235 13.7409L7.87214 11.31H9.35706V15.0718H8.41661V12.2999L7.41972 15.0718H6.59495L5.59528 12.2999V15.0718H4.65483Z" fill="#016FD0"/>
<path d="M10.0004 15.0718V11.31H13.0692V12.1515H10.9508V12.7949H13.0197V13.5869H10.9508V14.2551H13.0692V15.0718H10.0004Z" fill="#016FD0"/>
<path d="M13.6133 11.3107V15.0725H14.5538V13.736H14.9497L16.0774 15.0725H17.2266L15.9892 13.6865C16.497 13.6437 17.0209 13.2078 17.0209 12.5311C17.0209 11.7395 16.3996 11.3107 15.7061 11.3107H13.6133ZM14.5538 12.1521H15.6288C15.8867 12.1521 16.0743 12.3538 16.0743 12.5481C16.0743 12.798 15.8312 12.9441 15.6427 12.9441H14.5538V12.1521Z" fill="#016FD0"/>
<path d="M18.3655 15.0718H17.4052V11.31H18.3655V15.0718Z" fill="#016FD0"/>
<path d="M20.6418 15.0718H20.4346C19.4317 15.0718 18.8228 14.2817 18.8228 13.2064C18.8228 12.1045 19.4249 11.31 20.6913 11.31H21.7308V12.2009H20.6533C20.1392 12.2009 19.7756 12.6022 19.7756 13.2156C19.7756 13.9442 20.1914 14.2501 20.7903 14.2501H21.0378L20.6418 15.0718Z" fill="#016FD0"/>
<path d="M22.6892 11.3107L21.0712 15.0725H22.1246L22.4231 14.3192H24.1586L24.4556 15.0725H25.5322L23.9158 11.3107H22.6892ZM23.2878 12.1862L23.8168 13.5025H22.7572L23.2878 12.1862Z" fill="#016FD0"/>
<path d="M25.6413 15.0718V11.31H26.837L28.3636 13.6735V11.31H29.3041V15.0718H28.1471L26.5817 12.6464V15.0718H25.6413Z" fill="#016FD0"/>
<path d="M6.93178 21.655V17.8932H10.0006V18.7346H7.88213V19.3781H9.95111V20.1701H7.88213V20.8383H10.0006V21.655H6.93178Z" fill="#016FD0"/>
<path d="M21.9691 21.655V17.8932H25.0379V18.7346H22.9194V19.3781H24.9785V20.1701H22.9194V20.8383H25.0379V21.655H21.9691Z" fill="#016FD0"/>
<path d="M10.1197 21.655L11.6139 19.7973L10.0841 17.8932H11.269L12.18 19.0703L13.0942 17.8932H14.2326L12.723 19.7741L14.2199 21.655H13.0353L12.1506 20.4964L11.2875 21.655H10.1197Z" fill="#016FD0"/>
<path d="M14.3317 17.8939V21.6557H15.2969V20.4677H16.2868C17.1245 20.4677 17.7594 20.0233 17.7594 19.1591C17.7594 18.4432 17.2614 17.8939 16.409 17.8939H14.3317ZM15.2969 18.7446H16.3394C16.61 18.7446 16.8035 18.9104 16.8035 19.1777C16.8035 19.4288 16.611 19.6108 16.3363 19.6108H15.2969V18.7446Z" fill="#016FD0"/>
<path d="M18.1672 17.8932V21.655H19.1076V20.3186H19.5036L20.6312 21.655H21.7805L20.5431 20.2691C21.0509 20.2262 21.5748 19.7903 21.5748 19.1136C21.5748 18.322 20.9534 17.8932 20.26 17.8932H18.1672ZM19.1076 18.7346H20.1827C20.4405 18.7346 20.6281 18.9364 20.6281 19.1306C20.6281 19.3805 20.3851 19.5266 20.1966 19.5266H19.1076V18.7346Z" fill="#016FD0"/>
<path d="M25.4733 21.655V20.8383H27.3555C27.634 20.8383 27.7545 20.6878 27.7545 20.5227C27.7545 20.3646 27.6343 20.2047 27.3555 20.2047H26.505C25.7657 20.2047 25.3539 19.7543 25.3539 19.078C25.3539 18.4749 25.731 17.8932 26.8296 17.8932H28.661L28.265 18.7396H26.6811C26.3783 18.7396 26.2851 18.8985 26.2851 19.0502C26.2851 19.2061 26.4003 19.3781 26.6316 19.3781H27.5225C28.3467 19.3781 28.7043 19.8456 28.7043 20.4578C28.7043 21.1159 28.3058 21.655 27.4777 21.655H25.4733Z" fill="#016FD0"/>
<path d="M28.925 21.655V20.8383H30.8071C31.0856 20.8383 31.2062 20.6878 31.2062 20.5227C31.2062 20.3646 31.086 20.2047 30.8071 20.2047H29.9566C29.2173 20.2047 28.8055 19.7543 28.8055 19.078C28.8055 18.4749 29.1826 17.8932 30.2812 17.8932H32.1126L31.7166 18.7396H30.1327C29.8299 18.7396 29.7367 18.8985 29.7367 19.0502C29.7367 19.2061 29.8519 19.3781 30.0832 19.3781H30.9741C31.7983 19.3781 32.1559 19.8456 32.1559 20.4578C32.1559 21.1159 31.7574 21.655 30.9293 21.655H28.925Z" fill="#016FD0"/>
</g>
<defs>
<clipPath id="clip0_2717_3">
<rect width="32.0797" height="32" fill="white" transform="translate(0.0761719)"/>
</clipPath>
</defs>
</svg>
