<svg width="42" height="32" viewBox="0 0 42 32" fill="none" xmlns="http://www.w3.org/2000/svg">
<g clip-path="url(#clip0_2717_4)">
<path d="M41.4847 25.4667C41.4847 28.9916 38.6145 31.8618 35.0897 31.8618H0.294464V6.53331C0.294464 3.00847 3.16469 0.138245 6.68953 0.138245H41.4847V25.4667Z" fill="white"/>
<path d="M30.1554 18.9709H32.799C32.8745 18.9709 33.0508 18.9458 33.1263 18.9458C33.6298 18.845 34.0579 18.3918 34.0579 17.7624C34.0579 17.1582 33.6298 16.705 33.1263 16.5791C33.0508 16.5539 32.8997 16.5539 32.799 16.5539H30.1554V18.9709Z" fill="url(#paint0_linear_2717_4)"/>
<path d="M32.4968 2.27832C29.979 2.27832 27.9145 4.31769 27.9145 6.86061V11.6191H34.3851C34.5362 11.6191 34.7124 11.6191 34.8383 11.6443C36.2986 11.7199 37.3812 12.4752 37.3812 13.7844C37.3812 14.8167 36.651 15.6979 35.2915 15.8741V15.9245C36.7769 16.0252 37.9099 16.8561 37.9099 18.1401C37.9099 19.5249 36.651 20.4312 34.9893 20.4312H27.8893V29.7469H34.6117C37.1294 29.7469 39.194 27.7075 39.194 25.1646V2.27832H32.4968Z" fill="url(#paint1_linear_2717_4)"/>
<path d="M33.7306 14.0865C33.7306 13.4822 33.3025 13.0794 32.799 13.0039C32.7486 13.0039 32.6227 12.9787 32.5472 12.9787H30.1554V15.1943H32.5472C32.6227 15.1943 32.7738 15.1943 32.799 15.1691C33.3025 15.0936 33.7306 14.6908 33.7306 14.0865Z" fill="url(#paint2_linear_2717_4)"/>
<path d="M7.16797 2.27832C4.65023 2.27832 2.58568 4.31769 2.58568 6.86061V18.1653C3.86973 18.7947 5.20413 19.1975 6.53853 19.1975C8.12471 19.1975 8.98074 18.2408 8.98074 16.9316V11.594H12.9084V16.9064C12.9084 18.971 11.6244 20.6578 7.26868 20.6578C4.62505 20.6578 2.5605 20.0788 2.5605 20.0788V29.7217H9.28287C11.8006 29.7217 13.8652 27.6823 13.8652 25.1394V2.27832H7.16797Z" fill="url(#paint3_linear_2717_4)"/>
<path d="M19.832 2.27832C17.3142 2.27832 15.2497 4.31769 15.2497 6.86061V12.8528C16.4079 11.8709 18.4221 11.2415 21.6699 11.3925C23.4072 11.4681 25.2703 11.9465 25.2703 11.9465V13.8851C24.3387 13.4067 23.2309 12.9787 21.7958 12.878C19.3284 12.7018 17.843 13.9103 17.843 16.0252C17.843 18.1653 19.3284 19.3738 21.7958 19.1724C23.2309 19.0717 24.3387 18.6185 25.2703 18.1653V20.1039C25.2703 20.1039 23.4324 20.5823 21.6699 20.6578C18.4221 20.8089 16.4079 20.1795 15.2497 19.1975V29.7721H21.9721C24.4898 29.7721 26.5544 27.7327 26.5544 25.1898V2.27832H19.832Z" fill="url(#paint4_linear_2717_4)"/>
</g>
<defs>
<linearGradient id="paint0_linear_2717_4" x1="27.9104" y1="17.7654" x2="39.2244" y2="17.7654" gradientUnits="userSpaceOnUse">
<stop stop-color="#007940"/>
<stop offset="0.2285" stop-color="#00873F"/>
<stop offset="0.7433" stop-color="#40A737"/>
<stop offset="1" stop-color="#5CB531"/>
</linearGradient>
<linearGradient id="paint1_linear_2717_4" x1="27.91" y1="16.0016" x2="39.2249" y2="16.0016" gradientUnits="userSpaceOnUse">
<stop stop-color="#007940"/>
<stop offset="0.2285" stop-color="#00873F"/>
<stop offset="0.7433" stop-color="#40A737"/>
<stop offset="1" stop-color="#5CB531"/>
</linearGradient>
<linearGradient id="paint2_linear_2717_4" x1="27.9101" y1="14.0834" x2="39.2246" y2="14.0834" gradientUnits="userSpaceOnUse">
<stop stop-color="#007940"/>
<stop offset="0.2285" stop-color="#00873F"/>
<stop offset="0.7433" stop-color="#40A737"/>
<stop offset="1" stop-color="#5CB531"/>
</linearGradient>
<linearGradient id="paint3_linear_2717_4" x1="2.58035" y1="16.0016" x2="14.0696" y2="16.0016" gradientUnits="userSpaceOnUse">
<stop stop-color="#1F286F"/>
<stop offset="0.4751" stop-color="#004E94"/>
<stop offset="0.8261" stop-color="#0066B1"/>
<stop offset="1" stop-color="#006FBC"/>
</linearGradient>
<linearGradient id="paint4_linear_2717_4" x1="15.1846" y1="16.0016" x2="26.3433" y2="16.0016" gradientUnits="userSpaceOnUse">
<stop stop-color="#6C2C2F"/>
<stop offset="0.1735" stop-color="#882730"/>
<stop offset="0.5731" stop-color="#BE1833"/>
<stop offset="0.8585" stop-color="#DC0436"/>
<stop offset="1" stop-color="#E60039"/>
</linearGradient>
<clipPath id="clip0_2717_4">
<rect width="41.4667" height="32" fill="white" transform="translate(0.15625)"/>
</clipPath>
</defs>
</svg>
