<svg width="42" height="32" viewBox="0 0 42 32" fill="none" xmlns="http://www.w3.org/2000/svg">
<g clip-path="url(#clip0_2717_7)">
<path d="M41.1951 20.597V20.1039H41.0673L40.9194 20.4426L40.7723 20.1039H40.6437V20.597H40.7345V20.2252L40.8727 20.5461H40.9668L41.1051 20.2244V20.597H41.1951ZM40.384 20.597V20.188H40.548V20.1048H40.13V20.188H40.294V20.597H40.384Z" fill="#0099DF"/>
<path d="M26.6608 22.7182H15.5988V2.72595H26.6608V22.7182Z" fill="#6C6BBD"/>
<path d="M16.3081 12.7205C16.3081 8.66494 18.1963 5.05239 21.1367 2.72432C18.9864 1.02192 16.2727 0.00581169 13.3234 0.00581169C6.34136 0.00581169 0.68158 5.69827 0.68158 12.7205C0.68158 19.7427 6.34136 25.4351 13.3234 25.4351C16.2727 25.4351 18.9864 24.419 21.1367 22.7166C18.1963 20.3885 16.3081 16.776 16.3081 12.7205Z" fill="#EB001B"/>
<path d="M41.5803 12.7205C41.5803 19.7427 35.9205 25.4351 28.9384 25.4351C25.9892 25.4351 23.2754 24.419 21.1244 22.7166C24.0656 20.3885 25.9538 16.776 25.9538 12.7205C25.9538 8.66494 24.0656 5.05239 21.1244 2.72432C23.2754 1.02192 25.9892 0.00581169 28.9384 0.00581169C35.9205 0.00581169 41.5803 5.69827 41.5803 12.7205Z" fill="#0099DF"/>
<path d="M30.3915 28.3638C30.5386 28.3638 30.75 28.3921 30.9116 28.4559L30.6865 29.1479C30.5321 29.084 30.3778 29.063 30.2299 29.063C29.7524 29.063 29.5137 29.3734 29.5137 29.9312V31.8244H28.783V28.4487H29.5065V28.8585C29.6962 28.5618 29.9703 28.3638 30.3915 28.3638ZM27.6922 29.1196H26.4985V30.645C26.4985 30.9837 26.6175 31.21 26.9832 31.21C27.1729 31.21 27.4117 31.1462 27.6287 31.0192L27.8393 31.6473C27.6078 31.8098 27.2429 31.9093 26.927 31.9093C26.0628 31.9093 25.7614 31.4428 25.7614 30.6587V29.1196H25.0798V28.4487H25.7614V27.4245H26.4985V28.4487H27.6922V29.1196ZM18.3444 29.8399C18.4224 29.3524 18.7166 29.0202 19.2367 29.0202C19.7069 29.0202 20.0092 29.3168 20.0863 29.8399H18.3444ZM20.8452 30.1365C20.8379 29.084 20.1917 28.3638 19.2504 28.3638C18.2673 28.3638 17.5792 29.084 17.5792 30.1365C17.5792 31.2092 18.2954 31.9084 19.3002 31.9084C19.8058 31.9084 20.2688 31.7815 20.6764 31.4356L20.3179 30.8915C20.0373 31.1179 19.6788 31.2448 19.342 31.2448C18.8718 31.2448 18.4433 31.0257 18.338 30.4186H20.8307C20.8379 30.3265 20.8452 30.2351 20.8452 30.1365ZM24.0541 29.3104C23.8507 29.1827 23.4367 29.0202 23.0083 29.0202C22.608 29.0202 22.3692 29.1689 22.3692 29.4163C22.3692 29.6418 22.6216 29.7057 22.9375 29.7477L23.2816 29.797C24.0123 29.9037 24.4544 30.2141 24.4544 30.8075C24.4544 31.4501 23.8925 31.9093 22.9239 31.9093C22.3757 31.9093 21.8701 31.7678 21.4697 31.4711L21.8138 30.8988C22.0598 31.0896 22.4255 31.2521 22.9311 31.2521C23.4295 31.2521 23.6964 31.1041 23.6964 30.8422C23.6964 30.6523 23.5067 30.5456 23.1063 30.4898L22.7623 30.4405C22.0107 30.3338 21.6032 29.9951 21.6032 29.4446C21.6032 28.7736 22.1514 28.3638 23.001 28.3638C23.5348 28.3638 24.0195 28.4842 24.37 28.717L24.0541 29.3104ZM33.061 29.0614C32.9107 29.0614 32.7716 29.0881 32.6422 29.1406C32.5136 29.194 32.4019 29.2683 32.3078 29.3637C32.2138 29.4591 32.1398 29.5739 32.086 29.7073C32.0321 29.8407 32.0056 29.9878 32.0056 30.1478C32.0056 30.3087 32.0321 30.455 32.086 30.5884C32.1398 30.7218 32.2138 30.8366 32.3078 30.9319C32.4019 31.0273 32.5136 31.1017 32.6422 31.1551C32.7716 31.2084 32.9107 31.2343 33.061 31.2343C33.2113 31.2343 33.3512 31.2084 33.4798 31.1551C33.6092 31.1017 33.7218 31.0273 33.8158 30.9319C33.9115 30.8366 33.9854 30.7218 34.0401 30.5884C34.0939 30.455 34.1205 30.3087 34.1205 30.1478C34.1205 29.9878 34.0939 29.8407 34.0401 29.7073C33.9854 29.5739 33.9115 29.4591 33.8158 29.3637C33.7218 29.2683 33.6092 29.194 33.4798 29.1406C33.3512 29.0881 33.2113 29.0614 33.061 29.0614ZM33.061 28.3638C33.3214 28.3638 33.5626 28.4091 33.7845 28.5004C34.0063 28.5909 34.1984 28.7162 34.36 28.8755C34.5224 29.0347 34.6486 29.2231 34.7402 29.4397C34.8318 29.6572 34.8777 29.8932 34.8777 30.1478C34.8777 30.4025 34.8318 30.6385 34.7402 30.856C34.6486 31.0726 34.5224 31.2618 34.36 31.421C34.1984 31.5802 34.0063 31.7047 33.7845 31.7961C33.5626 31.8866 33.3214 31.9319 33.061 31.9319C32.8006 31.9319 32.5594 31.8866 32.3376 31.7961C32.1157 31.7047 31.9252 31.5802 31.7644 31.421C31.6037 31.2618 31.4775 31.0726 31.3858 30.856C31.2942 30.6385 31.2484 30.4025 31.2484 30.1478C31.2484 29.8932 31.2942 29.6572 31.3858 29.4397C31.4775 29.2231 31.6037 29.0347 31.7644 28.8755C31.9252 28.7162 32.1157 28.5909 32.3376 28.5004C32.5594 28.4091 32.8006 28.3638 33.061 28.3638ZM14.0777 30.1365C14.0777 29.5432 14.4643 29.0558 15.0962 29.0558C15.6998 29.0558 16.1074 29.5222 16.1074 30.1365C16.1074 30.7509 15.6998 31.2165 15.0962 31.2165C14.4643 31.2165 14.0777 30.7299 14.0777 30.1365ZM16.7955 30.1365V28.4487H16.0656V28.8585C15.8333 28.5546 15.4828 28.3638 15.0053 28.3638C14.064 28.3638 13.3269 29.1051 13.3269 30.1365C13.3269 31.1672 14.064 31.9093 15.0053 31.9093C15.4828 31.9093 15.8333 31.7185 16.0656 31.4145V31.8244H16.7955V30.1365ZM12.6806 31.8244V29.7057C12.6806 28.9078 12.175 28.3711 11.3608 28.3638C10.9323 28.3565 10.4894 28.4907 10.1807 28.9644C9.94922 28.5901 9.58348 28.3638 9.07063 28.3638C8.71293 28.3638 8.36165 28.4697 8.08755 28.865V28.4487H7.35767V31.8244H8.09478V29.953C8.09478 29.367 8.41792 29.0558 8.9163 29.0558C9.40101 29.0558 9.64698 29.3734 9.64698 29.9458V31.8244H10.3841V29.953C10.3841 29.367 10.7217 29.0558 11.2056 29.0558C11.7048 29.0558 11.9435 29.3734 11.9435 29.9458V31.8244H12.6806Z" fill="#231F20"/>
<path d="M35.6644 31.5715V31.6547H35.7407C35.7576 31.6547 35.7721 31.6507 35.7817 31.6442C35.7922 31.6378 35.7978 31.6264 35.7978 31.6127C35.7978 31.599 35.7922 31.5884 35.7817 31.582C35.7721 31.5747 35.7576 31.5715 35.7407 31.5715H35.6644ZM35.7415 31.5133C35.7809 31.5133 35.8115 31.5222 35.8332 31.5399C35.8549 31.5577 35.8653 31.582 35.8653 31.6127C35.8653 31.6386 35.8573 31.6596 35.8396 31.6766C35.8227 31.6927 35.7978 31.7032 35.7665 31.7073L35.8677 31.8245H35.789L35.6949 31.7081H35.6644V31.8245H35.5985V31.5133H35.7415ZM35.7215 31.9312C35.7576 31.9312 35.7914 31.9247 35.8219 31.911C35.8533 31.8972 35.8806 31.8786 35.9039 31.8552C35.9272 31.8318 35.9457 31.8043 35.9594 31.7719C35.9722 31.7404 35.9795 31.7065 35.9795 31.6701C35.9795 31.6337 35.9722 31.5998 35.9594 31.5682C35.9457 31.5367 35.9272 31.5084 35.9039 31.485C35.8806 31.4615 35.8533 31.4429 35.8219 31.43C35.7914 31.4163 35.7576 31.4098 35.7215 31.4098C35.6853 31.4098 35.6507 31.4163 35.6194 31.43C35.5872 31.4429 35.5591 31.4615 35.5358 31.485C35.5125 31.5084 35.494 31.5367 35.4811 31.5682C35.4674 31.5998 35.461 31.6337 35.461 31.6701C35.461 31.7065 35.4674 31.7404 35.4811 31.7719C35.494 31.8043 35.5125 31.8318 35.5358 31.8552C35.5591 31.8786 35.5872 31.8972 35.6194 31.911C35.6507 31.9247 35.6853 31.9312 35.7215 31.9312ZM35.7215 31.3346C35.7689 31.3346 35.8123 31.3435 35.8533 31.3613C35.8951 31.3783 35.9304 31.4025 35.9618 31.4332C35.9923 31.4631 36.0165 31.4987 36.0341 31.5399C36.0518 31.5804 36.0607 31.624 36.0607 31.6701C36.0607 31.7162 36.0518 31.7598 36.0341 31.8002C36.0165 31.8406 35.9923 31.8762 35.9618 31.9061C35.9304 31.9368 35.8951 31.9611 35.8533 31.9789C35.8123 31.9967 35.7689 32.0056 35.7215 32.0056C35.6732 32.0056 35.629 31.9967 35.5872 31.9789C35.5454 31.9611 35.5092 31.9368 35.4787 31.9061C35.4481 31.8762 35.424 31.8406 35.4063 31.8002C35.3887 31.7598 35.3798 31.7162 35.3798 31.6701C35.3798 31.624 35.3887 31.5804 35.4063 31.5399C35.424 31.4987 35.4481 31.4631 35.4787 31.4332C35.5092 31.4025 35.5454 31.3783 35.5872 31.3613C35.629 31.3435 35.6732 31.3346 35.7215 31.3346Z" fill="#231F20"/>
</g>
<defs>
<clipPath id="clip0_2717_7">
<rect width="40.9114" height="32" fill="white" transform="translate(0.65332)"/>
</clipPath>
</defs>
</svg>
