<svg width="43" height="32" viewBox="0 0 43 32" fill="none" xmlns="http://www.w3.org/2000/svg">
<g clip-path="url(#clip0_2717_2)">
<path d="M8.37527 31.9269V29.8032C8.37527 28.9891 7.8801 28.4581 7.03125 28.4581C6.60682 28.4581 6.14702 28.5997 5.8287 29.0599C5.58112 28.6705 5.22742 28.4581 4.69689 28.4581C4.3432 28.4581 3.98951 28.5643 3.70656 28.9537V28.5289H2.96381V31.9269H3.70656V30.0509C3.70656 29.4492 4.02488 29.166 4.52004 29.166C5.01521 29.166 5.26279 29.4846 5.26279 30.0509V31.9269H6.00555V30.0509C6.00555 29.4492 6.35923 29.166 6.81903 29.166C7.3142 29.166 7.56178 29.4846 7.56178 30.0509V31.9269H8.37527ZM19.375 28.5289H18.1725V27.5025H17.4297V28.5289H16.7577V29.2014H17.4297V30.7588C17.4297 31.5375 17.7481 31.9977 18.5969 31.9977C18.9152 31.9977 19.2689 31.8915 19.5165 31.7499L19.3043 31.1128C19.0921 31.2544 18.8445 31.2898 18.6677 31.2898C18.314 31.2898 18.1725 31.0774 18.1725 30.7234V29.2014H19.375V28.5289ZM25.6707 28.4581C25.2463 28.4581 24.9633 28.6705 24.7865 28.9537V28.5289H24.0438V31.9269H24.7865V30.0155C24.7865 29.4492 25.0341 29.1306 25.4939 29.1306C25.6354 29.1306 25.8122 29.166 25.9537 29.2014L26.1659 28.4935C26.0244 28.4581 25.8122 28.4581 25.6707 28.4581ZM16.1565 28.8121C15.8028 28.5643 15.3076 28.4581 14.7771 28.4581C13.9282 28.4581 13.3623 28.8829 13.3623 29.5554C13.3623 30.1217 13.7867 30.4403 14.5295 30.5465L14.8832 30.5819C15.2722 30.6526 15.4844 30.7588 15.4844 30.9358C15.4844 31.1836 15.2015 31.3606 14.7063 31.3606C14.2112 31.3606 13.8221 31.1836 13.5745 31.0066L13.2208 31.5729C13.6099 31.8561 14.1404 31.9977 14.671 31.9977C15.6613 31.9977 16.2272 31.5375 16.2272 30.9004C16.2272 30.2987 15.7674 29.9801 15.06 29.8739L14.7063 29.8386C14.388 29.8032 14.1404 29.7324 14.1404 29.52C14.1404 29.2722 14.388 29.1306 14.7771 29.1306C15.2015 29.1306 15.6259 29.3076 15.8381 29.4138L16.1565 28.8121ZM35.8924 28.4581C35.468 28.4581 35.185 28.6705 35.0082 28.9537V28.5289H34.2654V31.9269H35.0082V30.0155C35.0082 29.4492 35.2558 29.1306 35.7155 29.1306C35.857 29.1306 36.0339 29.166 36.1753 29.2014L36.3876 28.4935C36.2461 28.4581 36.0339 28.4581 35.8924 28.4581ZM26.4135 30.2279C26.4135 31.2544 27.1209 31.9977 28.2173 31.9977C28.7125 31.9977 29.0662 31.8915 29.4199 31.6083L29.0662 31.0066C28.7832 31.219 28.5003 31.3252 28.1819 31.3252C27.5807 31.3252 27.1562 30.9004 27.1562 30.2279C27.1562 29.5908 27.5807 29.166 28.1819 29.1306C28.5003 29.1306 28.7832 29.2368 29.0662 29.4492L29.4199 28.8475C29.0662 28.5643 28.7125 28.4581 28.2173 28.4581C27.1209 28.4581 26.4135 29.2014 26.4135 30.2279ZM33.2751 30.2279V28.5289H32.5323V28.9537C32.2848 28.6351 31.9311 28.4581 31.4713 28.4581C30.5163 28.4581 29.7735 29.2014 29.7735 30.2279C29.7735 31.2544 30.5163 31.9977 31.4713 31.9977C31.9664 31.9977 32.3201 31.8207 32.5323 31.5021V31.9269H33.2751V30.2279ZM30.5517 30.2279C30.5517 29.6262 30.9407 29.1306 31.5774 29.1306C32.1786 29.1306 32.6031 29.5908 32.6031 30.2279C32.6031 30.8296 32.1786 31.3252 31.5774 31.3252C30.9407 31.2898 30.5517 30.8296 30.5517 30.2279ZM21.674 28.4581C20.6837 28.4581 19.9763 29.166 19.9763 30.2279C19.9763 31.2898 20.6837 31.9977 21.7094 31.9977C22.2046 31.9977 22.6997 31.8561 23.0888 31.5375L22.7351 31.0066C22.4522 31.219 22.0985 31.3606 21.7448 31.3606C21.285 31.3606 20.8252 31.1482 20.7191 30.5465H23.2303C23.2303 30.4403 23.2303 30.3695 23.2303 30.2633C23.2656 29.166 22.629 28.4581 21.674 28.4581ZM21.674 29.0953C22.1338 29.0953 22.4521 29.3784 22.5229 29.9093H20.7544C20.8252 29.4492 21.1435 29.0953 21.674 29.0953ZM40.1013 30.2279V27.1839H39.3586V28.9537C39.111 28.6351 38.7573 28.4581 38.2975 28.4581C37.3425 28.4581 36.5998 29.2014 36.5998 30.2279C36.5998 31.2544 37.3425 31.9977 38.2975 31.9977C38.7927 31.9977 39.1463 31.8207 39.3586 31.5021V31.9269H40.1013V30.2279ZM37.3779 30.2279C37.3779 29.6262 37.7669 29.1306 38.4036 29.1306C39.0049 29.1306 39.4293 29.5908 39.4293 30.2279C39.4293 30.8296 39.0049 31.3252 38.4036 31.3252C37.7669 31.2898 37.3779 30.8296 37.3779 30.2279ZM12.5488 30.2279V28.5289H11.8061V28.9537C11.5585 28.6351 11.2048 28.4581 10.745 28.4581C9.79003 28.4581 9.04728 29.2014 9.04728 30.2279C9.04728 31.2544 9.79003 31.9977 10.745 31.9977C11.2402 31.9977 11.5939 31.8207 11.8061 31.5021V31.9269H12.5488V30.2279ZM9.79003 30.2279C9.79003 29.6262 10.1791 29.1306 10.8157 29.1306C11.417 29.1306 11.8414 29.5908 11.8414 30.2279C11.8414 30.8296 11.417 31.3252 10.8157 31.3252C10.1791 31.2898 9.79003 30.8296 9.79003 30.2279Z" fill="black"/>
<path d="M27.0482 2.72595H15.907V22.7598H27.0482V2.72595Z" fill="#FF5F00"/>
<path d="M16.6152 12.7424C16.6152 8.67189 18.5251 5.06155 21.4608 2.72545C19.3032 1.02647 16.5798 0 13.6088 0C6.57039 0 0.875977 5.69867 0.875977 12.7424C0.875977 19.7861 6.57039 25.4847 13.6088 25.4847C16.5798 25.4847 19.3032 24.4583 21.4608 22.7593C18.5251 20.4586 16.6152 16.8128 16.6152 12.7424Z" fill="#EB001B"/>
<path d="M42.0806 12.7424C42.0806 19.7861 36.3862 25.4847 29.3477 25.4847C26.3767 25.4847 23.6533 24.4583 21.4958 22.7593C24.4668 20.4232 26.3414 16.8128 26.3414 12.7424C26.3414 8.67189 24.4314 5.06155 21.4958 2.72545C23.6533 1.02647 26.3767 0 29.3477 0C36.3862 0 42.0806 5.73406 42.0806 12.7424Z" fill="#F79E1B"/>
</g>
<defs>
<clipPath id="clip0_2717_2">
<rect width="41.2" height="32" fill="white" transform="translate(0.875977)"/>
</clipPath>
</defs>
</svg>
