<svg width="120" height="32" viewBox="0 0 120 32" fill="none" xmlns="http://www.w3.org/2000/svg">
<g clip-path="url(#clip0_2717_8)">
<path d="M57.6531 10.6608C56.7783 13.1032 54.3658 12.8151 54.3658 12.8151L51.0726 12.817L52.3733 7.97852C52.3733 7.97852 54.4573 7.98912 55.8341 7.98912C57.5192 7.98912 58.131 9.32738 57.6531 10.6608ZM64.5699 8.40052C65.1046 4.16609 61.8779 2.39813 57.8487 2.39813C55.9574 2.39813 47.2631 2.39813 47.2631 2.39813L41.015 25.1725H47.7409L49.6322 18.1508L54.992 18.1835C54.992 18.1835 63.2913 18.5352 64.5699 8.40052Z" fill="#2F3086"/>
<path d="M26.1418 8.62598H32.2772L29.751 18.3473C29.751 18.3473 29.1209 20.5151 31.149 20.6828C32.7503 20.8148 33.9421 18.9033 34.3332 17.6084C34.8458 15.9078 36.8402 8.62598 36.8402 8.62598H43.1605L38.3509 25.1725H32.8322L33.5104 22.8082C33.5104 22.8082 30.6952 26.241 26.5118 25.8296C22.7938 25.4645 22.473 22.7677 23.1175 19.4033C23.4335 17.751 26.1418 8.62598 26.1418 8.62598Z" fill="#2F3086"/>
<path d="M70.2233 21.8014C69.1721 22.0682 67.8975 22.2128 67.6451 21.258C66.9504 18.6412 73.0771 17.8752 73.0771 17.8752C73.1185 20.2598 71.0297 21.5961 70.2233 21.8014ZM79.4899 17.012C80.2982 14.2603 81.3205 11.6532 80.4977 10.2089C79.2384 7.99779 76.9618 7.80414 73.632 7.80414C69.9535 7.80414 65.4108 8.50265 63.9309 13.3951C66.2326 13.3951 70.0556 13.3951 70.0556 13.3951C70.0556 13.3951 70.6135 11.552 72.9133 11.6686C74.9481 11.7707 74.8364 13.1716 74.0868 13.9453C72.7717 15.3018 69.1394 14.5494 65.1169 15.9454C61.6022 17.1642 60.3719 21.7859 61.1359 23.631C61.8758 25.4192 63.2536 25.6466 65.1131 25.8296C68.0988 26.1225 70.388 24.4586 71.4536 23.4816C71.4536 24.5665 71.4816 25.1725 71.4816 25.1725H77.9272L77.9117 24.5655C77.9117 24.5655 77.3375 24.4133 77.4011 23.6069C77.4483 23.0153 78.5611 20.1731 79.4899 17.012Z" fill="#2F3086"/>
<path d="M17.4819 10.6088C16.6119 12.6244 13.9152 12.395 13.9152 12.395L10.7762 12.3806L11.9227 8.11341C11.9227 8.11341 14.7312 8.12401 16.108 8.12401C17.5831 8.12401 18.0436 9.30811 17.4819 10.6088ZM24.6174 7.70105C25.1521 3.46758 21.4264 2.39813 17.3981 2.39813C15.5068 2.39813 6.81253 2.39813 6.81253 2.39813L0.564453 25.1725H7.29041L9.39076 17.4398L13.1637 17.4706C13.1637 17.4706 14.7207 17.38 14.7515 18.8426C14.7852 20.4024 13.5953 23.2668 13.6724 25.1725C14.5665 25.1725 20.5824 25.1725 20.5824 25.1725L20.567 24.5655C20.567 24.5655 19.9927 24.4133 20.0573 23.6069C20.0843 23.2706 20.4542 22.2089 20.9398 20.7762C21.2318 20.1442 21.673 18.646 21.6326 17.4263C21.5815 15.903 20.6257 15.1958 19.248 14.7016C23.5441 13.6938 24.6174 7.70105 24.6174 7.70105Z" fill="#2F3086"/>
<path d="M82.4115 8.62598H88.6596V18.5535L94.0656 8.62598H99.8001L88.2386 28.6969C88.2386 28.6969 87.1653 30.381 85.8338 31.2713C84.7393 32.0035 83.3952 31.9707 82.9838 31.9996C80.7004 31.9804 77.9459 31.9746 77.9459 31.9746L79.2745 27.19L81.4249 27.1862C81.4249 27.1862 82.4086 27.086 82.7892 26.6004C83.1515 26.1379 83.3365 25.6755 83.3365 24.9972C83.3365 23.9807 82.4115 8.62598 82.4115 8.62598Z" fill="#2F3086"/>
<path d="M107.815 4.80286L100.6 29.8992L114.104 17.351L107.815 4.80286Z" fill="#108147"/>
<path d="M103.192 4.80286L95.9774 29.8992L109.481 17.351L103.192 4.80286Z" fill="#F07322"/>
<path d="M116.623 0.247624C115.252 0.247624 114.137 1.36332 114.137 2.73433C114.137 4.10534 115.252 5.22103 116.623 5.22103C117.994 5.22103 119.11 4.10534 119.11 2.73433C119.11 1.36332 117.994 0.247624 116.623 0.247624ZM116.623 5.46768C115.116 5.46768 113.89 4.24119 113.89 2.73433C113.89 1.22747 115.116 0.000976562 116.623 0.000976562C118.13 0.000976562 119.357 1.22747 119.357 2.73433C119.357 4.24119 118.13 5.46768 116.623 5.46768Z" fill="#020202"/>
<path d="M115.296 3.75459V2.04541H114.659V1.8161H116.194V2.04541H115.554V3.75459H115.296Z" fill="#020202"/>
<path d="M116.584 3.75459V1.8161H116.97L117.429 3.18904C117.471 3.31622 117.502 3.41256 117.522 3.47615C117.543 3.40485 117.578 3.30176 117.625 3.16495L118.089 1.8161H118.434V3.75459H118.187V2.13212L117.623 3.75459H117.392L116.831 2.10418V3.75459H116.584Z" fill="#020202"/>
</g>
<defs>
<clipPath id="clip0_2717_8">
<rect width="118.793" height="32" fill="white" transform="translate(0.564453)"/>
</clipPath>
</defs>
</svg>
