<svg width="99" height="32" viewBox="0 0 99 32" fill="none" xmlns="http://www.w3.org/2000/svg">
<g clip-path="url(#clip0_2717_1)">
<path d="M42.8459 31.5384H34.8362L39.846 0.561523H47.8553L42.8459 31.5384Z" fill="#00579F"/>
<path d="M71.8815 1.31881C70.3016 0.692035 67.7958 0 64.6975 0C56.7877 0 51.2177 4.21791 51.1835 10.2482C51.1178 14.6974 55.1715 17.1686 58.2033 18.6521C61.3021 20.168 62.3555 21.1574 62.3555 22.5086C62.324 24.5839 59.8515 25.5404 57.5454 25.5404C54.3476 25.5404 52.6342 25.0473 50.0303 23.8927L48.9756 23.3978L47.8548 30.3514C49.7333 31.2072 53.1944 31.9667 56.7877 32C65.192 32 70.6634 27.8474 70.7282 21.4211C70.7602 17.8948 68.6197 15.1928 64.005 12.9848C61.2036 11.5675 59.4879 10.6118 59.4879 9.16157C59.5208 7.8432 60.939 6.49286 64.1013 6.49286C66.7052 6.42672 68.6184 7.05262 70.0677 7.67895L70.7922 8.00789L71.8815 1.31881Z" fill="#00579F"/>
<path d="M82.5275 20.5644C83.1872 18.7848 85.7254 11.8973 85.7254 11.8973C85.6921 11.9634 86.3837 10.0849 86.7792 8.93163L87.3389 11.6008C87.3389 11.6008 88.8557 19.0156 89.1851 20.5644C87.9333 20.5644 84.1096 20.5644 82.5275 20.5644ZM92.4144 0.561523H86.219C84.3084 0.561523 82.8569 1.12128 82.0326 3.13169L70.1353 31.5379H78.5396C78.5396 31.5379 79.9232 27.7147 80.2206 26.8912C81.1426 26.8912 89.3182 26.8912 90.5043 26.8912C90.7343 27.9788 91.46 31.5379 91.46 31.5379H98.8762L92.4144 0.561523Z" fill="#00579F"/>
<path d="M28.1465 0.561523L20.3024 21.6848L19.4453 17.4007C17.9951 12.4575 13.4469 7.08679 8.3714 4.41633L15.5563 31.5055H24.0263L36.616 0.561523H28.1465Z" fill="#00579F"/>
<path d="M13.0186 0.561523H0.131836L0 1.18742C10.0525 3.75802 16.71 9.95435 19.4453 17.402L16.6439 3.16541C16.1826 1.18698 14.7653 0.626785 13.0186 0.561523Z" fill="#FAA61A"/>
</g>
<defs>
<clipPath id="clip0_2717_1">
<rect width="98.8759" height="32" fill="white"/>
</clipPath>
</defs>
</svg>
